<?xml version="1.0" standalone="no"?>
<!DOCTYPE svg PUBLIC "-//W3C//DTD SVG 20010904//EN"
 "http://www.w3.org/TR/2001/REC-SVG-20010904/DTD/svg10.dtd">
<svg version="1.0" xmlns="http://www.w3.org/2000/svg"
 width="1280.000000pt" height="720.000000pt" viewBox="0 0 1280.000000 720.000000"
 preserveAspectRatio="xMidYMid meet">
<metadata>
Created by potrace 1.16, written by Peter Selinger 2001-2019
</metadata>
<g transform="translate(0.000000,720.000000) scale(0.100000,-0.100000)"
fill="#000000" stroke="none">
<path d="M6420 4878 c0 -5 -4 -6 -10 -3 -5 3 -10 -3 -10 -14 0 -11 3 -22 8
-24 4 -3 6 -68 4 -146 -2 -115 -6 -141 -18 -141 -11 0 -14 25 -15 138 -1 75 0
149 1 163 1 23 -2 26 -27 24 -15 -1 -30 -3 -33 -3 -3 -1 -3 -68 -2 -149 3
-126 2 -147 -12 -155 -14 -8 -15 -26 -10 -149 6 -120 5 -141 -9 -157 -14 -15
-15 -31 -9 -105 6 -68 5 -87 -5 -87 -7 0 -22 -9 -32 -19 -17 -17 -19 -29 -14
-90 l6 -71 -352 0 -351 0 -11 -27 c-6 -16 -9 -128 -7 -290 l3 -263 -70 0 c-42
0 -76 -5 -83 -12 -14 -14 -16 -98 -2 -98 6 0 10 -26 10 -57 0 -32 3 -75 6 -95
l7 -38 1013 0 1014 0 0 89 c0 50 5 93 10 96 11 7 14 74 4 99 -5 13 -22 16 -78
16 l-71 0 0 272 c0 150 -3 281 -7 291 -7 16 -34 17 -363 17 l-355 0 6 80 7 81
-32 12 -33 12 7 88 c5 64 4 91 -5 103 -10 11 -11 49 -6 155 5 121 4 140 -9
145 -13 5 -16 29 -14 150 0 78 -2 147 -5 152 -8 14 -46 22 -46 10z m30 -367
c0 -6 -4 -13 -10 -16 -6 -4 -10 -57 -10 -126 l0 -119 -40 0 -40 0 0 119 c0 66
-3 126 -6 135 -5 13 3 16 50 16 31 0 56 -4 56 -9z m6 -307 c-3 -9 -6 -51 -6
-95 l0 -79 -55 0 -55 0 0 79 c0 44 -3 86 -6 95 -5 14 4 16 61 16 57 0 66 -2
61 -16z m50 -210 c-3 -9 -6 -40 -6 -70 l0 -54 -105 0 -105 0 0 54 c0 30 -3 61
-6 70 -5 14 8 16 111 16 103 0 116 -2 111 -16z m-856 -399 l0 -245 -40 0 -40
0 0 245 0 245 40 0 40 0 0 -245z m140 0 l0 -245 -55 0 -55 0 0 245 0 245 55 0
55 0 0 -245z m150 0 l0 -245 -55 0 -55 0 0 245 0 245 55 0 55 0 0 -245z m148
-2 l2 -243 -55 0 -55 0 0 246 0 245 53 -3 52 -3 3 -242z m146 0 l1 -243 -52 0
-53 0 0 246 0 245 51 -3 52 -3 1 -242z m136 2 l0 -245 -50 0 -50 0 0 245 0
245 50 0 50 0 0 -245z m150 0 l0 -245 -50 0 -50 0 0 245 0 245 50 0 50 0 0
-245z m140 0 l0 -245 -55 0 -55 0 0 245 0 245 55 0 55 0 0 -245z m150 0 l0
-245 -55 0 -55 0 0 245 0 245 55 0 55 0 0 -245z m150 0 l0 -245 -55 0 -55 0 0
245 0 245 55 0 55 0 0 -245z m148 -2 l2 -243 -55 0 -55 0 0 246 0 245 53 -3
52 -3 3 -242z m112 2 l0 -245 -40 0 -40 0 0 245 0 245 40 0 40 0 0 -245z m-60
-285 c0 -20 -7 -20 -765 -20 -758 0 -765 0 -765 20 0 20 7 20 765 20 758 0
765 0 765 -20z m220 -60 c0 -5 -4 -10 -10 -10 -6 0 -10 -38 -10 -95 l0 -95
-965 0 -965 0 0 95 c0 68 -4 96 -12 97 -7 2 426 5 962 8 536 3 981 6 988 8 6
1 12 -2 12 -8z"/>
</g>
</svg>
